<svg xmlns="http://www.w3.org/2000/svg" width="127" height="40" viewBox="0 0 126 40" fill="none"><rect x="0.5" y="0.5" width="125" height="39" rx="7.5" fill="#121217"></rect><path d="M22.9485 7.5C23.0985 8.83125 22.5585 10.1437 21.7698 11.1075C20.946 12.0563 19.6273 12.7812 18.3435 12.6888C18.176 11.4075 18.8273 10.045 19.5548 9.215C20.3773 8.27125 21.806 7.55 22.9485 7.5Z" fill="white"></path><path d="M27.1496 15.1783C26.9905 15.2718 24.6345 16.6562 24.6604 19.4656C24.6904 22.8744 27.7129 23.9994 27.7504 24.0119C27.7317 24.0906 27.2767 25.6369 26.1429 27.2056C25.1967 28.5894 24.2042 29.9394 22.6292 29.9644C21.8796 29.9815 21.3738 29.771 20.8467 29.5516C20.2971 29.3228 19.7244 29.0844 18.8279 29.0844C17.8776 29.0844 17.2792 29.3305 16.7019 29.5679C16.2033 29.773 15.7206 29.9716 15.0404 29.9994C13.5404 30.0531 12.3942 28.5231 11.4129 27.1531C9.45167 24.3569 7.92542 19.2731 9.97167 15.8131C10.9642 14.1169 12.7729 13.0244 14.7054 12.9944C15.5562 12.9774 16.3728 13.2975 17.0886 13.5782C17.636 13.7928 18.1244 13.9844 18.5242 13.9844C18.8762 13.9844 19.3515 13.8002 19.9053 13.5857C20.7771 13.2479 21.8435 12.8348 22.9304 12.9456C23.6729 12.9669 25.7892 13.2331 27.1542 15.1756L27.1496 15.1783Z" fill="white"></path><path fill-rule="evenodd" clip-rule="evenodd" d="M43.9263 13.3643C43.679 14.1985 42.8627 14.7374 41.9882 14.6437C41.3921 14.6593 40.8188 14.4148 40.4211 13.9752C40.0229 13.5358 39.8405 12.9455 39.922 12.3612C39.8837 12.0756 39.907 11.7889 39.987 11.5186C40.0709 11.2342 40.2174 10.9681 40.4201 10.7408C40.5937 10.5462 40.8013 10.3886 41.0303 10.2734C41.3222 10.1261 41.6491 10.048 41.9843 10.0509C43.2289 10.0509 43.9797 10.8915 43.9797 12.2802V12.5846H40.8212V12.6336C40.8154 12.7026 40.8159 12.7715 40.8222 12.8395C40.8295 12.9154 40.844 12.9901 40.8658 13.0627C40.9168 13.2341 41.0075 13.3936 41.1336 13.5274C41.3606 13.7686 41.6797 13.904 42.0124 13.9003C42.2249 13.9255 42.4344 13.8872 42.6177 13.7971C42.8074 13.7038 42.9689 13.5552 43.0766 13.3642L43.9263 13.3643ZM40.8212 11.9392H43.0804C43.1032 11.6392 42.9965 11.3435 42.7865 11.1254C42.707 11.0426 42.6158 10.974 42.5164 10.921C42.3534 10.8342 42.1686 10.7893 41.9794 10.7937C41.671 10.7898 41.3741 10.9093 41.1564 11.125C41.0972 11.1835 41.0453 11.2478 41.0012 11.3164C40.959 11.3815 40.9236 11.4506 40.8959 11.5225C40.845 11.6543 40.8193 11.7955 40.8212 11.9392Z" fill="white"></path><path d="M41.4537 9.39683L42.4848 8H43.5199L42.3655 9.39683H41.4537Z" fill="white"></path><path d="M36.8644 14.5583V9.52678H35V8.69865H39.6455V9.52678H37.785V14.5583H36.8644Z" fill="white"></path><path d="M46.0885 8.40999H45.2058V14.5583H46.0885V8.40999Z" fill="white"></path><path fill-rule="evenodd" clip-rule="evenodd" d="M51.32 13.3643C51.0726 14.1985 50.2563 14.7374 49.3818 14.6437C48.7857 14.6593 48.2124 14.4148 47.8147 13.9752C47.6634 13.808 47.5431 13.6188 47.4568 13.4165C47.4083 13.3032 47.3704 13.1857 47.3438 13.0656C47.2933 12.8367 47.2827 12.5985 47.3156 12.3612C47.2856 12.1388 47.2933 11.9157 47.336 11.7002C47.4054 11.3479 47.5683 11.0159 47.8138 10.7408C48.2095 10.2976 48.7804 10.0459 49.3779 10.0509C50.6225 10.0509 51.3733 10.8915 51.3733 12.2802V12.5846H48.2149V12.6336C48.1872 12.9617 48.3002 13.2863 48.5272 13.5274C48.7542 13.7686 49.0734 13.904 49.4061 13.9003C49.5855 13.9217 49.7631 13.8976 49.9246 13.8351C49.9619 13.8206 49.9983 13.8042 50.0337 13.7857L50.0812 13.7595L50.1283 13.7303C50.1671 13.7049 50.2039 13.677 50.2389 13.6467C50.3305 13.5678 50.4091 13.4728 50.4702 13.3642L51.32 13.3643ZM48.2149 11.9392H50.4741C50.4969 11.6392 50.3902 11.3435 50.1802 11.1254C49.9706 10.9072 49.6777 10.7867 49.3731 10.7937C49.0646 10.7898 48.7678 10.9093 48.55 11.125C48.3318 11.3407 48.211 11.6342 48.2149 11.9392Z" fill="white"></path><path d="M48.8473 9.39683L49.8785 8H50.9135L49.7592 9.39683H48.8473Z" fill="white"></path><path d="M54.4309 10.8306C54.9222 10.7887 55.3709 11.1076 55.4873 11.5815H56.3458C56.2318 10.6428 55.383 9.96421 54.4309 10.0509C53.8304 10.0297 53.2513 10.2712 52.8473 10.7111C52.4438 11.1509 52.257 11.7443 52.3366 12.3329C52.2527 12.9259 52.4379 13.5253 52.8425 13.9709C53.0534 14.2031 53.3129 14.3811 53.5986 14.4958C53.73 14.5485 53.8668 14.5878 54.007 14.6128C54.1472 14.6377 54.2907 14.6482 54.4357 14.6437C55.3801 14.7366 56.2274 14.0683 56.3458 13.137H55.4873C55.3709 13.608 54.9179 13.9199 54.4309 13.864C53.6956 13.864 53.2397 13.2914 53.2397 12.3329C53.2397 11.3907 53.6917 10.8306 54.4309 10.8306Z" fill="white"></path><path d="M57.5176 8.40999H58.3925V10.8469H58.4624C58.703 10.3252 59.2481 10.0083 59.8263 10.0547C60.2647 10.0311 60.6906 10.2021 60.9889 10.5208C61.2867 10.8397 61.4254 11.2732 61.3667 11.7033V14.5583H60.483V11.9186C60.483 11.7789 60.4699 11.6528 60.4442 11.5405C60.403 11.361 60.3297 11.2166 60.2254 11.1074C60.1861 11.0663 60.1425 11.0302 60.0945 10.9991C59.9461 10.903 59.7559 10.8546 59.5265 10.8546C59.413 10.8453 59.3 10.8546 59.1919 10.8808C59.0071 10.9256 58.8363 11.02 58.6996 11.1562C58.4828 11.3723 58.3731 11.6722 58.4003 11.9757V14.5583H57.5176V8.40999Z" fill="white"></path><path fill-rule="evenodd" clip-rule="evenodd" d="M64.14 11.9876C63.0759 12.0529 62.4764 12.5118 62.4764 13.3078C62.4779 13.6851 62.6408 14.0444 62.9251 14.2965C63.2088 14.5486 63.5876 14.6703 63.9674 14.6312C64.5091 14.6559 65.0223 14.3907 65.3109 13.9369H65.3807V14.5583H66.23V11.5369C66.23 10.6028 65.598 10.0509 64.4766 10.0509C63.462 10.0509 62.7393 10.5381 62.6491 11.2976H63.5037C63.6017 10.985 63.9431 10.8061 64.4359 10.8061C65.0393 10.8061 65.3516 11.0699 65.3516 11.5369V11.9186L64.14 11.9876ZM65.3516 12.5602V12.9299C65.3322 13.2117 65.1983 13.4738 64.9796 13.656C64.7613 13.8382 64.4776 13.925 64.1934 13.8966C63.7132 13.8966 63.364 13.665 63.364 13.267C63.364 12.8771 63.6434 12.67 64.2593 12.6292L65.3516 12.5602Z" fill="white"></path><path d="M67.6123 10.1362H68.4621V10.8143H68.528C68.723 10.3314 69.2109 10.0279 69.7357 10.0629C69.8681 10.0611 70.0001 10.0733 70.1296 10.0993V10.9605C70.0413 10.9419 69.952 10.9282 69.8623 10.9193C69.7876 10.912 69.7124 10.9081 69.6368 10.9078C69.3424 10.8816 69.0504 10.9797 68.8331 11.1776C68.6158 11.3755 68.4931 11.6551 68.495 11.9474V14.5583H67.6123V10.1362Z" fill="white"></path><path fill-rule="evenodd" clip-rule="evenodd" d="M71.8446 15.0009H70.9415C71.0356 15.7523 71.7583 16.2477 72.8757 16.2477C74.1407 16.2477 74.9419 15.6061 74.9419 14.5947V10.1362H74.0961V10.8426H74.0262C73.742 10.3436 73.2002 10.043 72.6216 10.0629C71.4789 10.0629 70.7649 10.9481 70.7649 12.2965C70.7649 13.6204 71.4711 14.4931 72.6129 14.4931C73.1774 14.5218 73.7109 14.2348 73.9932 13.7503H74.0592V14.5991C74.0592 15.1836 73.6236 15.5289 72.8884 15.5289C72.2927 15.5289 71.9193 15.3217 71.8446 15.0009ZM72.8631 10.8469C73.6149 10.8469 74.0757 11.4113 74.0757 12.2921C74.0757 13.1778 73.6198 13.7379 72.8631 13.7379C72.1036 13.7379 71.6768 13.1735 71.6768 12.2921C71.6768 11.4113 72.1036 10.8469 72.8631 10.8469Z" fill="white"></path><path fill-rule="evenodd" clip-rule="evenodd" d="M80.1307 13.3643C79.8833 14.1985 79.067 14.7374 78.1925 14.6437C77.5964 14.6591 77.0232 14.4148 76.6254 13.9752C76.2272 13.5358 76.0449 12.9455 76.1263 12.3612C76.0473 11.7752 76.2287 11.184 76.6245 10.7408C77.0202 10.2975 77.5911 10.0459 78.1887 10.0509C79.4332 10.0509 80.184 10.8915 80.184 12.28V12.5845H77.0256V12.6334C76.9979 12.9617 77.1109 13.2862 77.3379 13.5274C77.5649 13.7686 77.8841 13.904 78.2168 13.9003C78.6489 13.9516 79.0695 13.7398 79.2809 13.3642L80.1307 13.3643ZM77.0256 11.9392H79.2848C79.3076 11.639 79.2009 11.3435 78.9909 11.1254C78.7813 10.9072 78.4884 10.7867 78.1838 10.7937C78.0029 10.7914 77.8259 10.8315 77.6668 10.9086C77.5542 10.963 77.4509 11.0358 77.3607 11.125C77.2967 11.1884 77.2414 11.2585 77.1944 11.3337C77.1779 11.3604 77.1623 11.3878 77.1483 11.4157C77.0658 11.5765 77.0232 11.7558 77.0256 11.9392Z" fill="white"></path><path d="M82.2192 10.1362H81.3694V14.5583H82.2522V11.9474C82.2502 11.6551 82.3729 11.3755 82.5902 11.1776C82.8075 10.9796 83.0995 10.8816 83.3939 10.9078C83.5598 10.9086 83.7247 10.9264 83.8867 10.9605V10.0993C83.7572 10.0733 83.6252 10.0611 83.4928 10.0629C82.968 10.0279 82.4801 10.3314 82.2851 10.8143H82.2192V10.1362Z" fill="white"></path><path fill-rule="evenodd" clip-rule="evenodd" d="M87.0674 12.3454C87.0674 10.9481 87.794 10.0629 88.9241 10.0629C89.495 10.0369 90.029 10.3392 90.2957 10.8387H90.3617V8.40999H91.2444V14.5583H90.3986V13.8597H90.3287C90.0421 14.355 89.5008 14.6522 88.9241 14.6312C87.7862 14.6312 87.0674 13.746 87.0674 12.3454ZM87.9793 12.3454C87.9793 13.2833 88.4265 13.8477 89.1744 13.8477C89.9184 13.8477 90.3782 13.2751 90.3782 12.3492C90.3782 11.4276 89.9135 10.8469 89.1744 10.8469C88.4313 10.8469 87.9793 11.4151 87.9793 12.3454Z" fill="white"></path><path fill-rule="evenodd" clip-rule="evenodd" d="M94.1012 11.9876C93.0371 12.0529 92.4376 12.5118 92.4376 13.3078C92.439 13.6851 92.602 14.0444 92.8862 14.2965C93.17 14.5486 93.5488 14.6702 93.9285 14.6312C94.4703 14.6559 94.9835 14.3907 95.272 13.9369H95.3419V14.5583H96.1916V11.5369C96.1916 10.6028 95.5592 10.0509 94.4378 10.0509C93.4231 10.0509 92.7005 10.5381 92.6103 11.2976H93.4649C93.5628 10.985 93.9043 10.8061 94.3971 10.8061C95.0004 10.8061 95.3128 11.0699 95.3128 11.5369V11.9186L94.1012 11.9876ZM95.3128 12.5602V12.9299C95.2934 13.2117 95.1595 13.4738 94.9408 13.656C94.9107 13.6809 94.8797 13.704 94.8477 13.7252C94.8147 13.747 94.7807 13.7669 94.7458 13.7849C94.6934 13.8117 94.6386 13.8341 94.5823 13.852C94.5402 13.8655 94.4965 13.8763 94.4528 13.8844C94.4199 13.8905 94.3864 13.895 94.3529 13.8979C94.2875 13.9036 94.221 13.9032 94.1546 13.8966C93.6744 13.8966 93.3252 13.665 93.3252 13.267C93.3252 12.8771 93.6045 12.67 94.2205 12.6292L95.3128 12.5602Z" fill="white"></path><path d="M97.574 10.1362H98.4237V10.8387H98.4897C98.7191 10.3215 99.255 10.0051 99.8244 10.0509C100.265 10.018 100.697 10.1853 100.999 10.5052C101.3 10.8252 101.437 11.2632 101.373 11.6955V14.5582H100.49V11.9148C100.49 11.2041 100.178 10.8507 99.5247 10.8507C99.2254 10.8369 98.9354 10.953 98.7302 11.1683C98.5251 11.3837 98.4252 11.677 98.4567 11.9713V14.5583H97.574V10.1362Z" fill="white"></path><path d="M106.123 11.2933C106.037 10.5136 105.379 10.0509 104.373 10.0509C103.362 10.0509 102.636 10.6028 102.636 11.3868C102.636 12.0447 103.029 12.4221 103.88 12.6211L104.66 12.7999C105.108 12.9054 105.318 13.0761 105.318 13.3399C105.318 13.6933 104.927 13.9369 104.377 13.9369C103.963 13.9968 103.561 13.7688 103.404 13.385H102.52C102.599 14.1685 103.292 14.6437 104.356 14.6437C105.424 14.6437 106.209 14.0874 106.209 13.255C106.209 12.6053 105.811 12.2437 104.96 12.0485L104.217 11.8783C103.732 11.7685 103.506 11.6021 103.506 11.3379C103.506 10.9927 103.88 10.7615 104.373 10.7615C104.874 10.7615 105.195 10.9687 105.276 11.2933H106.123Z" fill="white"></path><path d="M36.4104 17.8631H38.2574V30.0587H36.4104V17.8631Z" fill="white"></path><path d="M41.4915 17.8631L40.4827 22.3255H42.0638L43.2861 17.8631H41.4915Z" fill="white"></path><path fill-rule="evenodd" clip-rule="evenodd" d="M50.2655 26.7625H45.5637L44.4346 30.0587H42.4431L46.8966 17.8631H48.9657L53.4191 30.0587H51.3937L50.2655 26.7625ZM46.0507 25.2414H49.7776L47.9403 19.8915H47.8889L46.0507 25.2414Z" fill="white"></path><path fill-rule="evenodd" clip-rule="evenodd" d="M59.283 30.1517C61.5403 30.1517 63.0361 28.3765 63.0361 25.6136C63.0361 22.8578 61.5316 21.074 59.2491 21.074C58.0744 21.0365 56.9743 21.6404 56.3855 22.6458H56.3516V21.167H54.5648V33H56.4107V28.5961H56.4534C57.017 29.6078 58.1161 30.212 59.283 30.1517ZM58.7621 22.6295C60.1978 22.6295 61.1387 23.813 61.1387 25.6136C61.1387 27.43 60.1978 28.6048 58.7621 28.6048C57.3517 28.6048 56.403 27.405 56.403 25.6136C56.403 23.8379 57.3517 22.6295 58.7621 22.6295Z" fill="white"></path><path fill-rule="evenodd" clip-rule="evenodd" d="M72.9339 25.6136C72.9339 28.3765 71.4381 30.1517 69.1809 30.1517C68.0139 30.212 66.9148 29.6078 66.3512 28.5961H66.3086V33H64.4631V21.167H66.2494V22.6458H66.2833C66.8722 21.6404 67.9727 21.0365 69.1469 21.074C71.4294 21.074 72.9339 22.8578 72.9339 25.6136ZM71.0365 25.6136C71.0365 23.813 70.0956 22.6295 68.6599 22.6295C67.2495 22.6295 66.3008 23.8379 66.3008 25.6136C66.3008 27.405 67.2495 28.6048 68.6599 28.6048C70.0956 28.6048 71.0365 27.43 71.0365 25.6136Z" fill="white"></path><path d="M82.4248 28.6642C80.801 28.6642 79.6127 27.8701 79.4759 26.6608H77.5863C77.7056 28.8666 79.5525 30.262 82.288 30.262C85.2118 30.262 87.05 28.833 87.05 26.5515C87.05 24.7677 85.9985 23.7621 83.4676 23.1704L82.1086 22.8405C80.5187 22.4521 79.8688 21.9448 79.8688 21.0826C79.8688 20.0008 80.8863 19.2576 82.3734 19.2576C83.8605 19.2576 84.8781 19.9922 84.9896 21.2092H86.8531C86.7929 19.1051 85.0061 17.6598 82.3996 17.6598C79.7659 17.6598 77.9112 19.1051 77.9112 21.2092C77.9112 22.9086 78.9627 23.9559 81.2278 24.4968L82.8264 24.878C84.425 25.2664 85.1002 25.8332 85.1002 26.7797C85.1002 27.8701 83.9808 28.6642 82.4248 28.6642Z" fill="white"></path><path d="M91.0349 19.0629V21.167H92.7451V22.6123H91.0349V27.5143C91.0349 27.7997 91.0829 28.0279 91.1828 28.2019C91.3492 28.492 91.6591 28.6307 92.1291 28.6307C92.3323 28.6272 92.5351 28.613 92.7364 28.5885V30.0251C92.3983 30.0875 92.0549 30.1158 91.711 30.1095C89.8903 30.1095 89.1802 29.4334 89.1802 27.709V22.6123H87.8726V21.167H89.1802V19.0629H91.0349Z" fill="white"></path><path fill-rule="evenodd" clip-rule="evenodd" d="M97.9998 21.0577C95.4011 21.0577 93.7345 22.8156 93.7345 25.6136C93.7345 28.4187 95.3846 30.1689 97.9998 30.1689C100.616 30.1689 102.266 28.4187 102.266 25.6136C102.266 22.8156 100.607 21.0577 97.9998 21.0577ZM97.9998 22.5614C99.4956 22.5614 100.385 23.694 100.385 25.6136C100.385 27.5402 99.4956 28.6642 97.9998 28.6642C96.504 28.6642 95.6154 27.5402 95.6154 25.6136C95.6154 23.7027 96.504 22.5614 97.9998 22.5614Z" fill="white"></path><path d="M103.788 21.167H105.549V22.6804H105.591C105.837 21.7061 106.74 21.0356 107.755 21.074C107.967 21.0733 108.179 21.096 108.387 21.1421V22.8491C108.118 22.768 107.838 22.7307 107.558 22.7389C107.015 22.7172 106.49 22.931 106.12 23.3243C105.75 23.7178 105.572 24.2514 105.634 24.7849V30.0587H103.788V21.167Z" fill="white"></path><path fill-rule="evenodd" clip-rule="evenodd" d="M113.025 30.1689C115.059 30.1689 116.649 29.0613 116.897 27.4472H115.144C114.808 28.2722 113.963 28.7807 113.067 28.6978C112.396 28.7222 111.746 28.4602 111.283 27.9784C110.82 27.4965 110.589 26.8413 110.648 26.1794V26.0691H117V25.4438C117 22.7475 115.435 21.0577 112.947 21.0577C110.417 21.0577 108.785 22.8664 108.785 25.6557C108.785 28.436 110.409 30.1689 113.025 30.1689ZM115.153 24.7936H110.657C110.655 24.1932 110.896 23.6171 111.326 23.1932C111.615 22.9086 111.973 22.7085 112.361 22.6088C112.551 22.56 112.748 22.5353 112.947 22.5365C113.55 22.5237 114.13 22.7601 114.549 23.1885C114.968 23.617 115.187 24.1987 115.153 24.7936Z" fill="white"></path><rect x="0.5" y="0.5" width="125" height="39" rx="7.5" stroke="#C8C8CA"></rect></svg>