<svg xmlns="http://www.w3.org/2000/svg" width="24px" height="24px" viewBox="0 0 24 24"><defs><linearGradient x1="14.1182483%" y1="75.1408256%" x2="84.8071078%" y2="23.8771079%" id="linearGradient-1"><stop stop-color="#EC6608" offset="0%"></stop><stop stop-color="#ED6C07" offset="16.8%"></stop><stop stop-color="#EF7A07" offset="38.75%"></stop><stop stop-color="#F39107" offset="63.56%"></stop><stop stop-color="#F9AF06" offset="90.28%"></stop><stop stop-color="#FBBA07" offset="100%"></stop></linearGradient></defs><g id="Delivery/ic_colissimo" stroke="none" stroke-width="1" fill="none" fill-rule="evenodd"><rect id="Padding" x="0" y="0" width="24" height="24"></rect><g id="Colissimo" transform="translate(2.000000, 2.000000)" fill-rule="nonzero"><path d="M12.3356259,6.24784687 C12.2795048,6.28090426 12.1903714,6.27759852 12.135901,6.24454113 L11.810729,6.05115539 C11.7843191,6.0346267 11.7595598,6.00818078 11.741403,5.97677626 C11.7397524,5.97512339 11.7397524,5.97347052 11.7381018,5.97181765 C11.7166437,5.93876026 11.7050894,5.90239713 11.7050894,5.86933974 L11.6968363,5.49083262 C11.6951857,5.42637071 11.7364512,5.34868584 11.7925722,5.31562845 L15.6946355,3.03962709 L10.2195323,0.0495860862 C10.1584594,0.0165286954 10.0792297,0 10,0 C9.92077029,0 9.83988996,0.0165286954 9.78046768,0.0495860862 L4.30371389,3.03797422 L10.4390646,6.61478391 C10.4951857,6.64618843 10.5397524,6.72056756 10.5397524,6.78668234 L10.5397524,12.0047915 C10.5397524,12.0709063 10.4935351,12.1452854 10.4357634,12.1766899 L10.1056396,12.3601584 C10.0775791,12.3750343 10.0429161,12.3832986 10.0066025,12.3832986 C9.96038514,12.3849515 9.92407153,12.3766871 9.89436039,12.3601584 L9.56258597,12.175037 C9.50646492,12.1452854 9.46024759,12.0692534 9.46024759,12.0031386 L9.46024759,7.35196372 C9.45694635,7.31725346 9.43218707,7.27593172 9.40577717,7.2610559 L4,4.11068655 L4,10.2825014 C4,10.4213425 4.09738652,10.591588 4.21623109,10.6610085 L9.78376891,13.9485661 C9.8431912,13.9832763 9.92242091,14.0014579 10,13.999805 C10.0775791,13.999805 10.1568088,13.9832763 10.2162311,13.9485661 L15.7837689,10.6610085 C15.9026135,10.5899352 16,10.4213425 16,10.2825014 L16,4.11068655 L12.3356259,6.24784687 Z" id="Path" fill="url(#linearGradient-1)"></path><g id="Group" transform="translate(0.000000, 16.000000)" fill="#3C3C3B"><path d="M2.09576271,1.30847458 C1.87627119,1.17542373 1.6559322,1.11779661 1.36101695,1.11779661 C0.573728814,1.11779661 0.000847457627,1.6559322 0.000847457627,2.4720339 C0.000847457627,3.28220339 0.533898305,3.81525424 1.36694915,3.81525424 C1.63305085,3.81525424 1.88813559,3.76271186 2.11949153,3.62457627 L2.11949153,2.97033898 C1.92288136,3.12118644 1.70847458,3.20169492 1.46525424,3.20169492 C0.996610169,3.20169492 0.700847458,2.90084746 0.700847458,2.46101695 C0.700847458,1.99830508 1.00762712,1.73220339 1.43644068,1.73220339 C1.67372881,1.73220339 1.88220339,1.79576271 2.09576271,1.96949153 L2.09576271,1.30847458 L2.09576271,1.30847458 Z" id="Path"></path><path d="M6.34915254,3.16525424 L6.34661017,3.16525424 C6.09322034,3.1440678 5.96186441,2.99661017 5.96186441,2.73305085 L5.96186441,0.00254237288 L5.26864407,0.00254237288 L5.26864407,2.7779661 C5.26864407,3.53474576 5.69237288,3.78220339 6.34915254,3.78559322 L6.34915254,3.16525424 Z" id="Path"></path><path d="M3.64915254,1.11779661 C2.87881356,1.11779661 2.3,1.66186441 2.3,2.46610169 C2.3,3.27033898 2.87881356,3.81525424 3.64915254,3.81525424 C4.41864407,3.81525424 5.00338983,3.27118644 5.00338983,2.46610169 C5.00338983,1.66186441 4.41864407,1.11779661 3.64915254,1.11779661 Z M3.64915254,3.21355932 C3.27288136,3.21355932 3.00084746,2.92966102 3.00084746,2.46694915 C3.00084746,2.00423729 3.27288136,1.72033898 3.64915254,1.72033898 C4.02542373,1.72033898 4.29745763,2.00423729 4.29745763,2.46694915 C4.29745763,2.92966102 4.02542373,3.21355932 3.64915254,3.21355932 Z" id="Shape"></path><path d="M7.79661017,3.5779661 C8.00508475,3.71101695 8.32288136,3.78644068 8.63559322,3.78644068 C9.23728814,3.78644068 9.66016949,3.53135593 9.66016949,2.97033898 C9.66016949,2.50762712 9.43474576,2.25254237 8.76864407,2.13050847 C8.52542373,2.07288136 8.43305085,2.00338983 8.43305085,1.87033898 C8.43305085,1.74915254 8.53135593,1.65084746 8.76271186,1.65084746 C9.02881356,1.65084746 9.25423729,1.73728814 9.49745763,1.9 L9.49745763,1.27966102 C9.2720339,1.15254237 9.04576271,1.08898305 8.73898305,1.08898305 C8.18389831,1.08898305 7.75508475,1.34915254 7.75508475,1.91694915 C7.75508475,2.38559322 7.99830508,2.61694915 8.58220339,2.7220339 C8.86610169,2.77966102 8.97627119,2.84322034 8.97627119,3 C8.97627119,3.16186441 8.83135593,3.22542373 8.61779661,3.22542373 C8.36271186,3.22542373 8.03898305,3.11525424 7.79576271,2.93644068 L7.79576271,3.5779661 L7.79661017,3.5779661 Z" id="Path"></path><polygon id="Path" points="6.67033898 3.75762712 7.36694915 3.75762712 7.36694915 3.53559322 7.36694915 1.16949153 6.67033898 1.16949153"></polygon><path d="M7.01864407,0.137288136 C6.82627119,0.137288136 6.67033898,0.293220339 6.67033898,0.48559322 C6.67033898,0.677966102 6.82627119,0.833898305 7.01864407,0.833898305 C7.21101695,0.833898305 7.36694915,0.677966102 7.36694915,0.48559322 C7.36694915,0.292372881 7.21101695,0.137288136 7.01864407,0.137288136" id="Path"></path><path d="M18.6415254,1.11779661 C17.8720339,1.11779661 17.2923729,1.66186441 17.2923729,2.46610169 C17.2923729,3.27033898 17.8711864,3.81525424 18.6415254,3.81525424 C19.4110169,3.81525424 19.9957627,3.27118644 19.9957627,2.46610169 C19.9957627,1.66186441 19.4110169,1.11779661 18.6415254,1.11779661 Z M18.6415254,3.21355932 C18.2652542,3.21355932 17.9932203,2.92966102 17.9932203,2.46694915 C17.9932203,2.00423729 18.2652542,1.72033898 18.6415254,1.72033898 C19.0177966,1.72033898 19.2898305,2.00423729 19.2898305,2.46694915 C19.2898305,2.92966102 19.0177966,3.21355932 18.6415254,3.21355932 Z" id="Shape"></path><path d="M9.89322034,3.5779661 C10.1016949,3.71101695 10.4194915,3.78644068 10.7322034,3.78644068 C11.3347458,3.78644068 11.7567797,3.53135593 11.7567797,2.97033898 C11.7567797,2.50762712 11.5313559,2.25254237 10.8652542,2.13050847 C10.6220339,2.07288136 10.529661,2.00338983 10.529661,1.87033898 C10.529661,1.74915254 10.6279661,1.65084746 10.8601695,1.65084746 C11.1262712,1.65084746 11.3516949,1.73728814 11.5949153,1.9 L11.5949153,1.27966102 C11.3694915,1.15254237 11.1432203,1.08898305 10.8364407,1.08898305 C10.2813559,1.08898305 9.85254237,1.34915254 9.85254237,1.91694915 C9.85254237,2.38559322 10.0957627,2.61694915 10.679661,2.7220339 C10.9635593,2.77966102 11.0737288,2.84322034 11.0737288,3 C11.0737288,3.16186441 10.9288136,3.22542373 10.7152542,3.22542373 C10.4601695,3.22542373 10.1364407,3.11525424 9.89322034,2.93644068 L9.89322034,3.5779661 Z" id="Path"></path><polygon id="Path" points="12.0550847 3.75762712 12.7516949 3.75762712 12.7516949 3.53559322 12.7516949 1.16949153 12.0550847 1.16949153"></polygon><path d="M12.4033898,0.137288136 C12.2110169,0.137288136 12.0550847,0.293220339 12.0550847,0.48559322 C12.0550847,0.677966102 12.2110169,0.833898305 12.4033898,0.833898305 C12.5957627,0.833898305 12.7516949,0.677966102 12.7516949,0.48559322 C12.7516949,0.292372881 12.5957627,0.137288136 12.4033898,0.137288136" id="Path"></path><path d="M16.3076271,2.14322034 C16.3076271,1.87118644 16.1864407,1.73220339 15.9144068,1.73220339 C15.729661,1.73220339 15.5440678,1.77288136 15.4288136,1.83050847 C15.4516949,1.88813559 15.4805085,1.97542373 15.4805085,2.09661017 L15.4805085,3.75677966 L14.7805085,3.75677966 L14.7805085,2.14322034 C14.7805085,1.87118644 14.6533898,1.73220339 14.3872881,1.73220339 C14.2194915,1.73220339 14.0923729,1.75508475 13.9533898,1.79576271 L13.9533898,3.75677966 L13.259322,3.75677966 L13.259322,1.34576271 C13.6177966,1.20677966 14.0398305,1.12033898 14.4220339,1.12033898 C14.7228814,1.12033898 14.9771186,1.19576271 15.1338983,1.32288136 C15.3652542,1.21864407 15.6313559,1.12033898 16.0076271,1.12033898 C16.6211864,1.12033898 17.0084746,1.35762712 17.0084746,2.11525424 L17.0084746,3.75762712 L16.3084746,3.75762712 L16.3084746,2.14322034 L16.3076271,2.14322034 Z" id="Path"></path></g></g></g></svg>