<svg xmlns="http://www.w3.org/2000/svg" width="127" height="40" viewBox="0 0 126 40" fill="none"><rect x="0.5" y="0.5" width="125" height="39" rx="7.5" fill="#121217"></rect><path d="M11.8594 10.317C11.6097 10.6197 11.4823 11.0089 11.5033 11.4049V28.5937C11.4775 28.9903 11.6055 29.3813 11.8594 29.6816L11.9124 29.7438L21.3011 20.1159V19.8827L11.9124 10.2626L11.8594 10.317Z" fill="url(#paint0_linear_2007_3494)"></path><path d="M24.4076 23.3251L21.3008 20.1158V19.8827L24.4076 16.6733L24.4758 16.72L28.1964 18.8802C29.2572 19.4941 29.2572 20.5043 28.1964 21.126L24.4909 23.2862L24.4076 23.3251Z" fill="url(#paint1_linear_2007_3494)"></path><path d="M24.4988 23.2783L21.301 19.999L11.8594 29.6814C12.3012 30.0846 12.9606 30.1075 13.4279 29.7357L24.4988 23.2783Z" fill="url(#paint2_linear_2007_3494)"></path><path d="M24.4988 16.7199L13.4279 10.2701C12.9634 9.89305 12.3018 9.91272 11.8594 10.3168L21.301 19.9991L24.4988 16.7199Z" fill="url(#paint3_linear_2007_3494)"></path><path opacity="0.2" d="M24.4078 23.2086L13.4279 29.6195C12.9795 29.9666 12.3609 29.9666 11.9124 29.6195L11.8594 29.6739L11.9124 29.736C12.3609 30.0831 12.9795 30.0831 13.4279 29.736L24.4988 23.2786L24.4078 23.2086Z" fill="#121217"></path><path opacity="0.12" d="M28.197 21.0092L24.4082 23.2083L24.4764 23.2783L28.197 21.118C28.6444 20.924 28.9525 20.4947 29.0002 19.999C28.9041 20.4475 28.606 20.8224 28.197 21.0092Z" fill="#121217"></path><path opacity="0.25" d="M13.4286 10.3794L28.1973 18.9893C28.6063 19.1761 28.9044 19.5511 29.0005 19.9995C28.9528 19.5038 28.6447 19.0745 28.1973 18.8805L13.4286 10.2706C12.3753 9.64891 11.5039 10.1618 11.5039 11.4051V11.5217C11.5266 10.2783 12.3753 9.76547 13.4286 10.3794Z" fill="white"></path><path fill-rule="evenodd" clip-rule="evenodd" d="M54.7081 13.2714C55.4853 13.2714 56.2306 12.9691 56.7799 12.4312C57.3302 11.8894 57.6267 11.149 57.5993 10.3857C57.6179 9.62387 57.3227 8.88671 56.7799 8.34014C56.2306 7.80223 55.4853 7.5 54.7081 7.5C53.9309 7.5 53.1855 7.80223 52.6362 8.34014C51.5311 9.48952 51.5311 11.2819 52.6362 12.4312C53.1855 12.9691 53.9309 13.2714 54.7081 13.2714ZM54.7081 12.5971C54.1298 12.6049 53.5741 12.3781 53.173 11.9705C52.3437 11.0697 52.3437 9.70164 53.173 8.80085C53.5741 8.39327 54.1298 8.16644 54.7081 8.17429C55.287 8.16306 55.844 8.39043 56.2431 8.80085C57.0857 9.69662 57.0857 11.0748 56.2431 11.9705C55.844 12.3809 55.287 12.6083 54.7081 12.5971Z" fill="white"></path><path d="M43.4071 12.8827C43.7561 13.1279 44.1734 13.2629 44.6031 13.2697C44.8289 13.2744 45.0542 13.2465 45.2717 13.1868C45.487 13.1237 45.6905 13.0273 45.8745 12.9012C46.0671 12.7769 46.2229 12.6053 46.3265 12.4036C46.4421 12.1811 46.5003 11.9344 46.496 11.6849C46.5028 11.4402 46.4512 11.1972 46.3454 10.9754C46.2473 10.7732 46.0982 10.5988 45.9121 10.4686C45.7368 10.3381 45.5473 10.2268 45.3471 10.1369C45.12 10.0406 44.8873 9.95756 44.6502 9.88813C44.362 9.80671 44.0909 9.67566 43.8497 9.50114C43.6764 9.38443 43.574 9.19093 43.5766 8.98514C43.5743 8.75986 43.6829 8.54726 43.8685 8.41387C44.0739 8.26055 44.326 8.1794 44.5843 8.18351C44.8465 8.17176 45.1042 8.25363 45.3094 8.41387C45.4736 8.53434 45.5953 8.70179 45.6579 8.893L46.3171 8.62579C46.2085 8.31764 46.0044 8.0503 45.7332 7.86102C44.9957 7.36458 44.0131 7.39825 43.3129 7.94394C43.0078 8.20774 42.833 8.58681 42.8326 8.98514C42.8245 9.33149 42.9645 9.66543 43.2187 9.90656C43.5434 10.1935 43.9344 10.399 44.3582 10.5055C44.7342 10.6034 45.0907 10.7623 45.413 10.9754C45.6404 11.1455 45.7673 11.4145 45.752 11.6941C45.7603 11.9544 45.6325 12.201 45.413 12.3483C45.1798 12.5189 44.8941 12.6067 44.6031 12.5971C44.3001 12.5939 44.0087 12.4825 43.7838 12.2838C43.5454 12.0793 43.3748 11.8098 43.294 11.5098L42.6348 11.777C42.7414 12.2273 43.017 12.622 43.4071 12.8827Z" fill="white"></path><path fill-rule="evenodd" clip-rule="evenodd" d="M35.3831 7.62144V13.1499H37.1065C37.8811 13.1866 38.6371 12.91 39.1972 12.3852C39.7217 11.8484 40.0034 11.1278 39.9789 10.3857C40.0034 9.64353 39.7217 8.92294 39.1972 8.38622C38.6371 7.86134 37.8811 7.58481 37.1065 7.62144H35.3831ZM37.1065 12.4681H36.1082V8.30329H37.1065C37.6847 8.25506 38.2552 8.45891 38.6655 8.86037C39.0758 9.26183 39.2842 9.81999 39.2349 10.3857C39.2876 10.9522 39.0803 11.5124 38.6692 11.9146C38.2581 12.3169 37.6855 12.5197 37.1065 12.4681Z" fill="white"></path><path fill-rule="evenodd" clip-rule="evenodd" d="M56.6766 25.1468C56.6714 22.9789 58.4634 21.2174 60.6791 21.2123C61.7485 21.1922 62.7804 21.5977 63.5385 22.336C64.2966 23.0742 64.716 24.0819 64.7004 25.1283C64.7056 27.2962 62.9137 29.0577 60.698 29.0628C58.4822 29.0678 56.6818 27.3146 56.6766 25.1468ZM58.3172 26.1589C58.7472 27.0396 59.6839 27.5737 60.6791 27.5056C61.3038 27.4914 61.8961 27.231 62.3217 26.7834C62.7472 26.3358 62.97 25.7389 62.9393 25.1283C62.9369 24.1522 62.3249 23.2768 61.396 22.9207C60.4671 22.5646 59.4101 22.8003 58.7306 23.515C58.0511 24.2297 57.8871 25.2781 58.3172 26.1589Z" fill="white"></path><path fill-rule="evenodd" clip-rule="evenodd" d="M47.8994 25.1468C47.8942 22.9789 49.6862 21.2174 51.9019 21.2123C52.9713 21.1922 54.0032 21.5977 54.7613 22.336C55.5194 23.0742 55.9387 24.0819 55.9232 25.1283C55.9284 27.2962 54.1364 29.0577 51.9207 29.0628C49.705 29.0678 47.9046 27.3146 47.8994 25.1468ZM49.54 26.1589C49.97 27.0396 50.9066 27.5737 51.9019 27.5056C52.5265 27.4914 53.1189 27.231 53.5444 26.7834C53.97 26.3358 54.1928 25.7389 54.1621 25.1283C54.1597 24.1522 53.5476 23.2768 52.6187 22.9207C51.6898 22.5646 50.6328 22.8003 49.9533 23.515C49.2738 24.2297 49.1099 25.2781 49.54 26.1589Z" fill="white"></path><path d="M41.4671 24.0779V22.4194H47.1931C47.2528 22.7602 47.2812 23.1056 47.2778 23.4514C47.3246 24.888 46.7976 26.286 45.8087 27.3489C44.6762 28.497 43.0966 29.1172 41.4671 29.0536C39.1871 29.1404 37.0412 27.9998 35.8748 26.081C34.7084 24.1623 34.7084 21.7729 35.8748 19.8542C37.0412 17.9355 39.1871 16.7948 41.4671 16.8817C43.0618 16.8569 44.5994 17.4614 45.7333 18.5586L44.5373 19.7288C43.7075 18.9505 42.5977 18.5235 41.4483 18.5402C38.9517 18.5402 36.9278 20.5204 36.9278 22.963C36.9278 25.4056 38.9517 27.3858 41.4483 27.3858C42.6255 27.4342 43.7685 26.9922 44.5938 26.1695C45.1399 25.5962 45.4718 24.8591 45.5356 24.0779H41.4671Z" fill="white"></path><path fill-rule="evenodd" clip-rule="evenodd" d="M80.7104 21.2123C82.2718 21.2686 83.6356 22.262 84.1384 23.7094L84.3362 24.1148L78.9776 26.2801C79.3113 27.0303 80.0821 27.5025 80.9176 27.4687C81.7227 27.4764 82.4717 27.0662 82.8859 26.3907L84.2514 27.3121C83.2787 28.7538 81.4519 29.3971 79.7632 28.8925C78.0745 28.3878 76.9268 26.8558 76.9434 25.1283C76.8783 24.1116 77.2462 23.1138 77.9599 22.3719C78.6735 21.6301 79.6692 21.2103 80.7104 21.2123ZM79.2336 23.4389C78.8385 23.8706 78.6376 24.4396 78.6762 25.0178L82.2549 23.5619C81.9794 23.0168 81.3967 22.6864 80.7763 22.7234C80.1847 22.7494 79.6287 23.0073 79.2336 23.4389Z" fill="white"></path><path d="M76.0863 28.814H74.3252V17.2963H76.0863V28.814Z" fill="white"></path><path fill-rule="evenodd" clip-rule="evenodd" d="M71.3775 22.0877H71.4435V21.4427H73.0727V28.4178C73.0727 31.311 71.3681 32.4997 69.3057 32.4997C67.7448 32.5202 66.3326 31.5967 65.7552 30.1777L67.2809 29.5603C67.6052 30.3828 68.4049 30.9323 69.3057 30.9517C70.6241 30.9517 71.4435 30.1501 71.4435 28.6481V28.0861H71.3775C70.8499 28.6855 70.0764 29.0234 69.268 29.0075C67.1303 28.9061 65.4504 27.1808 65.4504 25.0869C65.4504 22.9929 67.1303 21.2677 69.268 21.1662C70.0748 21.158 70.8452 21.4945 71.3775 22.0877ZM67.1401 25.1329C67.1401 26.3884 68.1379 27.4275 69.4187 27.5056C70.0307 27.4826 70.6065 27.2155 71.0121 26.7664C71.4177 26.3174 71.6178 25.7255 71.5659 25.1283C71.6124 24.5333 71.4101 23.9454 71.0053 23.499C70.6006 23.0526 70.028 22.786 69.4187 22.7603C68.1379 22.8384 67.1401 23.8775 67.1401 25.1329Z" fill="white"></path><path fill-rule="evenodd" clip-rule="evenodd" d="M88.1692 17.2963H92.3883C93.7563 17.2001 95.0647 17.8597 95.7787 19.0055C96.4927 20.1514 96.4927 21.5914 95.7787 22.7372C95.0647 23.883 93.7563 24.5426 92.3883 24.4465H89.9303V28.814H88.1692V17.2963ZM89.9303 22.8248H92.3883L92.4259 22.8432C93.146 22.8432 93.8113 22.4674 94.1713 21.8573C94.5313 21.2472 94.5313 20.4956 94.1713 19.8855C93.8113 19.2754 93.146 18.8996 92.4259 18.8996H89.9303V22.8248Z" fill="white"></path><path fill-rule="evenodd" clip-rule="evenodd" d="M100.12 22.9354C100.712 21.7884 101.945 21.0964 103.256 21.1755L103.294 21.1939C105.3 21.1939 106.863 22.3641 106.863 24.382V28.814H105.168V27.8926H105.111C104.627 28.6357 103.77 29.0654 102.87 29.0167C102.135 29.0723 101.409 28.8342 100.857 28.3566C100.305 27.8791 99.9747 27.203 99.9412 26.4828C99.9412 24.8058 101.655 23.8844 103.332 23.8844C103.971 23.8836 104.602 24.0355 105.168 24.3267V24.2161C105.123 23.7735 104.898 23.367 104.544 23.088C104.19 22.8091 103.736 22.681 103.284 22.7327C102.626 22.6769 101.995 23.0053 101.674 23.5711L100.12 22.9354ZM101.665 26.5105C101.665 27.2015 102.465 27.4872 103.04 27.4872L103.077 27.5056C104.142 27.4848 105.027 26.6976 105.149 25.6628C104.661 25.3959 104.108 25.2623 103.548 25.2758C102.663 25.2758 101.665 25.589 101.665 26.5105Z" fill="white"></path><path d="M111.026 26.4367L113.041 21.4427H115L110.178 32.3062H108.342L110.131 28.427L106.995 21.4427H108.879L110.969 26.4367H111.026Z" fill="white"></path><path d="M98.9712 28.814H97.2195V17.2963H98.9712V28.814Z" fill="white"></path><path d="M40.9964 13.15V7.62148H41.7121V13.15H40.9964Z" fill="white"></path><path fill-rule="evenodd" clip-rule="evenodd" d="M48.3042 13.15H47.5791V7.62151H49.4626C49.9237 7.61376 50.3697 7.78236 50.7057 8.09143C51.0422 8.39335 51.2338 8.81954 51.2338 9.26623C51.2338 9.71293 51.0422 10.1391 50.7057 10.441C50.3697 10.7501 49.9237 10.9187 49.4626 10.911H48.3042V13.15ZM48.3042 10.2291H49.5285C49.8026 10.2388 50.0674 10.1312 50.2537 9.93426C50.4408 9.7603 50.5468 9.51881 50.5468 9.26623C50.5468 9.01366 50.4408 8.77217 50.2537 8.59821C50.0674 8.40131 49.8026 8.29365 49.5285 8.30335H48.3042V10.2291Z" fill="white"></path><path d="M58.6636 13.15V7.62148H59.5489L62.2894 11.9245V7.62148H63.024V13.15H62.2612L59.4359 8.64425V13.15H58.6636Z" fill="white"></path><path d="M64.3142 7.62148V13.15H65.0394V7.62148H64.3142Z" fill="white"></path><path fill-rule="evenodd" clip-rule="evenodd" d="M66.2824 13.1499V7.62145H68.326C68.7496 7.61729 69.1595 7.7685 69.4749 8.0453C69.7935 8.3158 69.9729 8.71073 69.9646 9.12336C69.9669 9.37156 69.8949 9.615 69.7575 9.82363C69.6184 10.0215 69.4261 10.1777 69.2018 10.2751C69.4737 10.3661 69.7126 10.5326 69.8893 10.7543C70.0624 10.9801 70.1551 11.2552 70.153 11.5375C70.1627 11.9675 69.9764 12.3795 69.6445 12.6616C69.3176 12.9592 68.8854 13.1211 68.439 13.1131L66.2824 13.1499ZM67.0075 9.98949H68.326C68.5759 10.0036 68.8187 9.90521 68.9852 9.72228C69.1449 9.56917 69.2363 9.36052 69.2395 9.14178C69.2484 8.92236 69.1709 8.70798 69.0229 8.54286C68.8626 8.36887 68.6311 8.27421 68.3919 8.28487H67.0075V9.98949ZM67.0075 12.4681H68.4767C68.7349 12.4766 68.9836 12.3718 69.1547 12.1825C69.3173 12.0125 69.4082 11.7887 69.409 11.5559C69.4033 11.3251 69.3092 11.1047 69.1453 10.9385C68.9617 10.7499 68.7051 10.6462 68.439 10.6529H67.0075V12.4681Z" fill="white"></path><path d="M71.1328 7.62148V13.15H74.2971V12.4681H71.8485V7.62148H71.1328Z" fill="white"></path><path d="M78.5161 8.30332H75.9451V10.054H78.2618V10.7174H75.9451V12.4681H78.5161V13.15H75.2199V7.62148H78.5161V8.30332Z" fill="white"></path><path d="M81.6991 12.8827C82.0521 13.1271 82.4721 13.2619 82.9045 13.2697C83.1304 13.2744 83.3557 13.2465 83.5732 13.1868C83.7884 13.1237 83.9919 13.0273 84.1759 12.9012C84.3685 12.7769 84.5244 12.6053 84.628 12.4036C84.7435 12.1811 84.8017 11.9344 84.7975 11.6849C84.7995 11.4406 84.7481 11.1987 84.6468 10.9754C84.5487 10.7732 84.3996 10.5988 84.2136 10.4686C84.0369 10.34 83.8476 10.2289 83.6485 10.1369C83.4188 10.0393 83.1828 9.95618 82.9422 9.88813C82.6556 9.80266 82.3852 9.67194 82.1417 9.50114C81.9721 9.38128 81.8708 9.1898 81.8686 8.98514C81.87 8.75856 81.982 8.54628 82.1699 8.41387C82.3753 8.26055 82.6274 8.1794 82.8857 8.18351C83.1452 8.17058 83.4004 8.2527 83.6014 8.41387C83.7715 8.5306 83.8973 8.69905 83.9593 8.893L84.6185 8.62579C84.51 8.31764 84.3059 8.0503 84.0346 7.86102C83.2971 7.36458 82.3145 7.39825 81.6143 7.94394C81.3093 8.20774 81.1344 8.58681 81.134 8.98514C81.1212 9.33234 81.2619 9.6681 81.5201 9.90656C81.8413 10.1934 82.2292 10.399 82.6502 10.5055C83.029 10.6038 83.3886 10.7625 83.7144 10.9754C83.9419 11.1455 84.0687 11.4145 84.0535 11.6941C84.0617 11.9544 83.9339 12.201 83.7144 12.3483C83.4805 12.5176 83.1953 12.6052 82.9045 12.5971C82.6015 12.5939 82.3102 12.4825 82.0852 12.2838C81.8468 12.0793 81.6763 11.8098 81.5955 11.5098L80.9362 11.777C81.0405 12.2259 81.3126 12.6203 81.6991 12.8827Z" fill="white"></path><path d="M87.802 13.2698C87.232 13.2935 86.6792 13.0751 86.2858 12.6708C85.8908 12.2395 85.6845 11.6738 85.7113 11.0952V7.62148H86.4364V11.1229C86.4172 11.5086 86.541 11.8881 86.7849 12.1917C87.0437 12.4705 87.4177 12.6196 87.802 12.5971C88.1745 12.6273 88.5411 12.492 88.8003 12.2286C89.0476 11.9262 89.1747 11.5466 89.1581 11.1597V7.62148H89.8833V11.0952C89.9116 11.6723 89.7089 12.2376 89.3182 12.6708C88.927 13.0782 88.3727 13.2972 87.802 13.2698Z" fill="white"></path><path fill-rule="evenodd" clip-rule="evenodd" d="M91.0602 7.62151V13.15H91.7665V10.911H92.567L94.1115 13.15H94.9685L93.3864 10.8465C93.7554 10.7722 94.0875 10.5773 94.3281 10.2936C94.5771 10.0085 94.714 9.64586 94.7142 9.27084C94.7269 8.82044 94.5336 8.38798 94.1868 8.09143C93.8508 7.78236 93.4048 7.61376 92.9437 7.62151H91.0602ZM92.9531 10.2475H91.7854V8.30335H93.0002C93.2775 8.29091 93.5463 8.3988 93.7348 8.59821C93.9081 8.78142 94.0055 9.02121 94.0079 9.27084C94.0127 9.53725 93.8993 9.79264 93.6971 9.97112C93.495 10.1539 93.2283 10.253 92.9531 10.2475Z" fill="white"></path><rect x="0.5" y="0.5" width="125" height="39" rx="7.5" stroke="#C8C8CA"></rect><defs><linearGradient id="paint0_linear_2007_3494" x1="17.4831" y1="11.2261" x2="9.22768" y2="19.2811" gradientUnits="userSpaceOnUse"><stop stop-color="#00A0FF"></stop><stop offset="0.01" stop-color="#00A1FF"></stop><stop offset="0.26" stop-color="#00BEFF"></stop><stop offset="0.51" stop-color="#00D2FF"></stop><stop offset="0.76" stop-color="#00DFFF"></stop><stop offset="1" stop-color="#00E3FF"></stop></linearGradient><linearGradient id="paint1_linear_2007_3494" x1="29.5831" y1="20.007" x2="11.2529" y2="20.007" gradientUnits="userSpaceOnUse"><stop stop-color="#FFE000"></stop><stop offset="0.41" stop-color="#FFBD00"></stop><stop offset="0.78" stop-color="#FFA500"></stop><stop offset="1" stop-color="#FF9C00"></stop></linearGradient><linearGradient id="paint2_linear_2007_3494" x1="22.7635" y1="23.0866" x2="8.66029" y2="36.8392" gradientUnits="userSpaceOnUse"><stop stop-color="#FF3A44"></stop><stop offset="1" stop-color="#C31162"></stop></linearGradient><linearGradient id="paint3_linear_2007_3494" x1="9.48002" y1="8.80907" x2="15.7748" y2="14.9474" gradientUnits="userSpaceOnUse"><stop stop-color="#32A071"></stop><stop offset="0.07" stop-color="#2DA771"></stop><stop offset="0.48" stop-color="#15CF74"></stop><stop offset="0.8" stop-color="#06E775"></stop><stop offset="1" stop-color="#00F076"></stop></linearGradient></defs></svg>