<svg xmlns="http://www.w3.org/2000/svg" width="10" height="10" viewBox="0 0 10 10" fill="none"><path fill-rule="evenodd" clip-rule="evenodd" d="M5.18017 5.18017H8.8197C8.91953 5.18017 9 5.0997 9 4.99987C9 4.90056 8.91953 4.82009 8.81996 4.81983L5.18017 4.82009V1.18004C5.18017 1.08073 5.0997 1.00025 5.00013 1C4.90056 1.00025 4.82009 1.08073 4.81983 1.1803L4.82009 4.82009L1.1803 4.81983C1.08073 4.82009 1.00025 4.90056 1 5.00013C1.00025 5.04979 1.02037 5.09486 1.05297 5.12745C1.08556 5.16005 1.13064 5.18017 1.18004 5.18017H4.82009L4.81983 8.81996C4.82009 8.86962 4.8402 8.91469 4.8728 8.94729C4.9054 8.97988 4.95047 9 4.99987 9C5.0997 9 5.18017 8.91953 5.18017 8.8197V5.18017Z" fill="#464650" stroke="black" stroke-width="2"></path></svg>