<svg xmlns="http://www.w3.org/2000/svg" width="30px" height="30px" viewBox="0 0 24 24" class="sc-1nc3mp-1 gAqldy" color="#464650"><g id="Action/ic_delete" stroke="none" stroke-width="1" fill="none" fill-rule="evenodd"><rect id="Padding" x="0" y="0" width="24" height="24"></rect><path d="M18.9918533,7.38191166 L19.0011749,7.48582384 L18.2374927,18.3632229 C18.1371256,19.6722658 17.0159661,20.9017672 15.512681,20.9944077 L15.3304935,21 L8.67068137,21 C7.07653485,21 5.86806393,19.7246276 5.76368222,18.3632229 L5,7.48582384 C5,6.86209417 5.93333435,6.83061379 5.99697876,7.43971328 L6.76608393,18.3632229 C6.84740044,19.1629883 7.64867412,20.0023346 8.67068137,20.0023346 L15.3304935,20.0023346 C16.2987109,20.0023346 17.0688184,19.2490155 17.2163413,18.4897025 L17.2350909,18.3632229 L18.0041961,7.43971328 C18.0640967,6.86644317 18.8943801,6.86060714 18.9918533,7.38191166 Z M9.80945497,10.1137473 L9.87867966,10.1715729 L12,12.293 L14.1213203,10.1715729 C14.2947972,9.99809601 14.5643708,9.9788208 14.7592024,10.1137473 L14.8284271,10.1715729 C15.001904,10.3450497 15.0211792,10.6146233 14.8862527,10.809455 L14.8284271,10.8786797 L12.707,13 L14.8284271,15.1213203 C15.001904,15.2947972 15.0211792,15.5643708 14.8862527,15.7592024 L14.8284271,15.8284271 C14.6549503,16.001904 14.3853767,16.0211792 14.190545,15.8862527 L14.1213203,15.8284271 L12,13.707 L9.87867966,15.8284271 C9.70520279,16.001904 9.43562924,16.0211792 9.24079756,15.8862527 L9.17157288,15.8284271 C8.99809601,15.6549503 8.9788208,15.3853767 9.11374725,15.190545 L9.17157288,15.1213203 L11.293,13 L9.17157288,10.8786797 C8.99809601,10.7052028 8.9788208,10.4356292 9.11374725,10.2407976 L9.17157288,10.1715729 C9.34504974,9.99809601 9.61462329,9.9788208 9.80945497,10.1137473 Z M12,3 C13.6788462,3 13.9477441,3.81638314 13.9917259,4.87219077 L13.996,5 L19.5,5 C19.776,5 20,5.224 20,5.5 C20,5.74533333 19.8230123,5.94958025 19.5898381,5.99193964 L19.5,6 L4.5,6 C4.224,6 4,5.776 4,5.5 C4,5.25466667 4.17698765,5.05041975 4.41016187,5.00806036 L4.5,5 L10.004,5 C10.033,3.883 10.254,3 12,3 Z M12.1304492,4.00067328 L11.8695508,4.00067328 C11.1645378,4.00896384 11.0317946,4.10455693 11.006452,4.8597644 L11.003,5 L12.997,5 C12.9826842,4.16521053 12.888313,4.02370083 12.2490173,4.00315906 L12.1304492,4.00067328 Z" id="Combined-Shape" fill="#464650"></path></g></svg>